<svg width="317" height="49" viewBox="0 0 317 49" fill="none" xmlns="http://www.w3.org/2000/svg">
<path d="M7.00122 7.03018L12.3498 14.6071H23.2679V17.0993H14.1092L19.1613 24.2563H22.6526V29.2019L31.3343 41.5V7.0307L7.00122 7.03018ZM32.2227 7.03018V41.4995L40.9044 29.2014V24.2558H44.3956L49.4478 17.0988H40.2891V14.6066H51.2072L56.5558 7.02972L32.2227 7.03018Z" fill="white"/>
<path d="M84.7412 26.2813H76.3009V35H71.9049V13.6648H85.7963V17.2255H76.3009V22.7352H84.7412V26.2813ZM97.5775 30.604H89.8699L88.4046 35H83.7302L91.6723 13.6648H95.7459L103.732 35H99.0575L97.5775 30.604ZM91.0568 27.0432H96.3906L93.7091 19.0572L91.0568 27.0432ZM113.623 27.1898H110.121V35H105.725V13.6648H113.652C116.173 13.6648 118.117 14.2265 119.484 15.3499C120.852 16.4733 121.536 18.0608 121.536 20.1122C121.536 21.5678 121.218 22.784 120.583 23.7609C119.958 24.728 119.006 25.4998 117.726 26.0761L122.342 34.7949V35H117.623L113.623 27.1898ZM110.121 23.629H113.667C114.771 23.629 115.626 23.3506 116.231 22.7938C116.837 22.2272 117.14 21.4506 117.14 20.4639C117.14 19.4577 116.852 18.6664 116.275 18.0901C115.709 17.5137 114.834 17.2255 113.652 17.2255H110.121V23.629ZM132.789 27.1898H129.287V35H124.891V13.6648H132.819C135.339 13.6648 137.283 14.2265 138.651 15.3499C140.018 16.4733 140.702 18.0608 140.702 20.1122C140.702 21.5678 140.385 22.784 139.75 23.7609C139.125 24.728 138.172 25.4998 136.892 26.0761L141.508 34.7949V35H136.79L132.789 27.1898ZM129.287 23.629H132.833C133.937 23.629 134.792 23.3506 135.398 22.7938C136.003 22.2272 136.306 21.4506 136.306 20.4639C136.306 19.4577 136.018 18.6664 135.442 18.0901C134.875 17.5137 134.001 17.2255 132.819 17.2255H129.287V23.629ZM156.894 25.7538H148.454V31.4685H158.36V35H144.058V13.6648H158.33V17.2255H148.454V22.3102H156.894V25.7538ZM165.335 31.4685H174.669V35H160.939V13.6648H165.335V31.4685ZM181.6 31.4685H190.934V35H177.204V13.6648H181.6V31.4685ZM206.305 26.2813H197.865V35H193.469V13.6648H207.36V17.2255H197.865V22.7352H206.305V26.2813ZM214.584 35H210.188V13.6648H214.584V35ZM234.293 17.2255H227.758V35H223.362V17.2255H216.914V13.6648H234.293V17.2255ZM254.163 35H249.767L241.209 20.9621V35H236.813V13.6648H241.209L249.782 27.732V13.6648H254.163V35ZM270.838 25.7538H262.398V31.4685H272.304V35H258.002V13.6648H272.274V17.2255H262.398V22.3102H270.838V25.7538ZM285.946 29.4024C285.946 28.5721 285.653 27.9371 285.067 27.4975C284.481 27.0481 283.426 26.5792 281.902 26.0908C280.378 25.5926 279.171 25.1041 278.282 24.6254C275.86 23.3164 274.648 21.5531 274.648 19.3356C274.648 18.1829 274.971 17.1571 275.615 16.2584C276.27 15.3499 277.203 14.6417 278.414 14.1337C279.635 13.6257 281.003 13.3717 282.517 13.3717C284.041 13.3717 285.399 13.6501 286.591 14.2069C287.783 14.754 288.706 15.5306 289.36 16.5368C290.024 17.543 290.357 18.686 290.357 19.9657H285.961C285.961 18.9888 285.653 18.2317 285.037 17.6944C284.422 17.1474 283.557 16.8738 282.444 16.8738C281.369 16.8738 280.534 17.1034 279.938 17.5625C279.342 18.0119 279.044 18.6078 279.044 19.3503C279.044 20.0438 279.391 20.6251 280.085 21.094C280.788 21.5629 281.819 22.0025 283.177 22.4128C285.677 23.165 287.499 24.0979 288.642 25.2116C289.785 26.3252 290.357 27.7124 290.357 29.3731C290.357 31.2194 289.658 32.6701 288.261 33.7252C286.864 34.7704 284.984 35.2931 282.62 35.2931C280.979 35.2931 279.484 34.9951 278.136 34.3992C276.788 33.7935 275.757 32.9681 275.044 31.9228C274.341 30.8775 273.989 29.6662 273.989 28.2888H278.4C278.4 30.6431 279.806 31.8202 282.62 31.8202C283.665 31.8202 284.481 31.6102 285.067 31.1901C285.653 30.7603 285.946 30.1644 285.946 29.4024ZM304.409 29.4024C304.409 28.5721 304.116 27.9371 303.53 27.4975C302.944 27.0481 301.889 26.5792 300.365 26.0908C298.841 25.5926 297.634 25.1041 296.745 24.6254C294.323 23.3164 293.111 21.5531 293.111 19.3356C293.111 18.1829 293.434 17.1571 294.079 16.2584C294.733 15.3499 295.666 14.6417 296.877 14.1337C298.098 13.6257 299.466 13.3717 300.98 13.3717C302.504 13.3717 303.862 13.6501 305.054 14.2069C306.246 14.754 307.169 15.5306 307.823 16.5368C308.488 17.543 308.82 18.686 308.82 19.9657H304.424C304.424 18.9888 304.116 18.2317 303.501 17.6944C302.885 17.1474 302.021 16.8738 300.907 16.8738C299.832 16.8738 298.997 17.1034 298.401 17.5625C297.805 18.0119 297.507 18.6078 297.507 19.3503C297.507 20.0438 297.854 20.6251 298.548 21.094C299.251 21.5629 300.282 22.0025 301.64 22.4128C304.141 23.165 305.962 24.0979 307.105 25.2116C308.248 26.3252 308.82 27.7124 308.82 29.3731C308.82 31.2194 308.121 32.6701 306.724 33.7252C305.327 34.7704 303.447 35.2931 301.083 35.2931C299.442 35.2931 297.947 34.9951 296.599 34.3992C295.251 33.7935 294.22 32.9681 293.507 31.9228C292.804 30.8775 292.452 29.6662 292.452 28.2888H296.863C296.863 30.6431 298.269 31.8202 301.083 31.8202C302.128 31.8202 302.944 31.6102 303.53 31.1901C304.116 30.7603 304.409 30.1644 304.409 29.4024Z" fill="white"/>
</svg>
