<?xml version="1.0" encoding="UTF-8" standalone="no"?>
<!DOCTYPE svg PUBLIC "-//W3C//DTD SVG 20010904//EN"
              "http://www.w3.org/TR/2001/REC-SVG-20010904/DTD/svg10.dtd">

<svg xmlns="http://www.w3.org/2000/svg"
     width="13.12in" height="8.74667in"
     viewBox="0 0 3936 2624">
  <path id="Selection"
        fill="none" stroke="black" stroke-width="1"
        d="M 1769.00,534.00
           C 1778.01,532.18 1784.90,528.36 1792.00,522.54
             1795.23,519.89 1799.92,514.66 1803.00,512.98
             1807.57,510.49 1812.32,512.18 1823.00,504.24
             1823.00,504.24 1839.17,489.56 1839.17,489.56
             1840.69,488.86 1847.53,487.83 1856.00,483.74
             1856.00,483.74 1881.00,469.27 1881.00,469.27
             1886.03,466.94 1888.35,469.23 1896.00,465.10
             1906.46,459.46 1918.18,446.65 1923.00,443.93
             1927.81,441.22 1948.86,439.01 1955.00,439.00
             1962.42,438.99 1985.25,438.24 1990.96,440.58
             1995.67,442.51 2003.42,455.77 2014.00,455.52
             2020.63,455.36 2026.68,449.65 2030.82,445.00
             2033.00,442.56 2035.24,437.98 2039.04,439.08
             2041.51,439.79 2050.35,447.30 2053.00,449.35
             2053.00,449.35 2076.00,467.44 2076.00,467.44
             2076.00,467.44 2088.00,478.39 2088.00,478.39
             2100.76,488.89 2127.11,504.97 2142.00,514.19
             2153.24,521.16 2166.88,529.18 2175.71,539.01
             2195.79,561.36 2214.69,597.52 2227.31,625.00
             2227.31,625.00 2252.97,684.00 2252.97,684.00
             2259.42,704.26 2262.06,726.90 2264.17,748.00
             2264.17,748.00 2267.00,778.00 2267.00,778.00
             2267.00,778.00 2267.00,787.00 2267.00,787.00
             2267.00,787.00 2268.00,797.00 2268.00,797.00
             2268.04,800.54 2267.42,812.82 2268.55,815.28
             2271.86,822.51 2279.69,822.76 2282.84,834.00
             2285.83,844.66 2287.02,863.74 2287.00,875.00
             2287.00,875.00 2286.00,894.00 2286.00,894.00
             2286.00,894.00 2283.16,923.00 2283.16,923.00
             2282.72,927.17 2281.87,937.52 2280.44,941.00
             2278.95,944.62 2275.02,947.76 2272.53,951.00
             2268.90,955.71 2266.52,961.39 2264.67,967.00
             2258.83,984.73 2258.50,1004.01 2238.00,1011.93
             2234.60,1013.25 2232.60,1013.68 2229.00,1014.00
             2229.00,1014.00 2223.04,1071.00 2223.04,1071.00
             2223.04,1071.00 2223.04,1080.00 2223.04,1080.00
             2223.04,1080.00 2222.00,1092.00 2222.00,1092.00
             2222.00,1092.00 2222.00,1134.00 2222.00,1134.00
             2222.03,1153.12 2226.53,1179.50 2234.22,1197.00
             2236.53,1202.26 2236.74,1205.01 2240.30,1210.00
             2252.20,1226.66 2277.12,1239.64 2295.00,1249.31
             2308.29,1256.49 2349.37,1275.55 2363.00,1280.31
             2363.00,1280.31 2417.00,1295.88 2417.00,1295.88
             2417.00,1295.88 2449.00,1304.37 2449.00,1304.37
             2455.10,1305.90 2460.67,1307.92 2467.00,1308.00
             2467.00,1308.00 2472.00,1308.00 2472.00,1308.00
             2495.28,1308.28 2531.69,1317.44 2553.00,1326.86
             2592.39,1344.27 2631.53,1379.00 2653.55,1416.00
             2661.94,1430.10 2672.88,1465.19 2677.71,1482.00
             2689.07,1521.53 2697.27,1560.93 2700.09,1602.00
             2700.09,1602.00 2701.00,1614.00 2701.00,1614.00
             2701.00,1614.00 2701.00,1639.00 2701.00,1639.00
             2700.92,1645.35 2699.24,1658.85 2697.62,1665.00
             2697.62,1665.00 2694.12,1675.04 2694.12,1675.04
             2694.12,1675.04 2691.58,1695.00 2691.58,1695.00
             2686.61,1726.99 2679.01,1758.67 2667.58,1789.00
             2660.32,1808.22 2649.90,1830.51 2639.19,1848.00
             2639.19,1848.00 2626.61,1867.00 2626.61,1867.00
             2601.82,1907.18 2578.98,1940.29 2547.72,1976.00
             2525.24,2001.68 2504.81,2021.73 2479.00,2044.00
             2479.00,2044.00 2461.00,2058.63 2461.00,2058.63
             2452.87,2064.75 2448.45,2066.15 2444.45,2076.00
             2436.49,2095.63 2433.93,2120.00 2431.83,2141.00
             2431.83,2141.00 2429.00,2180.00 2429.00,2180.00
             2429.00,2180.00 2428.00,2196.00 2428.00,2196.00
             2428.00,2196.00 2428.00,2210.00 2428.00,2210.00
             2428.00,2210.00 2427.00,2226.00 2427.00,2226.00
             2427.00,2226.00 2427.00,2311.00 2427.00,2311.00
             2427.00,2311.00 2428.00,2326.00 2428.00,2326.00
             2428.00,2326.00 2429.00,2378.00 2429.00,2378.00
             2429.00,2378.00 2430.00,2393.00 2430.00,2393.00
             2430.00,2393.00 2431.00,2424.00 2431.00,2424.00
             2431.00,2424.00 2432.00,2445.00 2432.00,2445.00
             2432.00,2445.00 2433.00,2460.00 2433.00,2460.00
             2433.00,2460.00 2434.00,2484.00 2434.00,2484.00
             2434.00,2484.00 2435.00,2497.00 2435.00,2497.00
             2435.00,2497.00 2437.00,2527.00 2437.00,2527.00
             2437.00,2527.00 2437.00,2536.00 2437.00,2536.00
             2437.00,2536.00 2439.04,2558.00 2439.04,2558.00
             2439.04,2558.00 2439.04,2567.00 2439.04,2567.00
             2439.04,2567.00 2442.00,2610.00 2442.00,2610.00
             2442.00,2610.00 2395.00,2611.00 2395.00,2611.00
             2395.00,2611.00 2339.00,2611.00 2339.00,2611.00
             2339.00,2611.00 2322.00,2612.00 2322.00,2612.00
             2322.00,2612.00 2228.00,2612.00 2228.00,2612.00
             2228.00,2612.00 2213.00,2613.00 2213.00,2613.00
             2213.00,2613.00 2119.00,2613.00 2119.00,2613.00
             2119.00,2613.00 2104.00,2614.00 2104.00,2614.00
             2104.00,2614.00 2010.00,2614.00 2010.00,2614.00
             2010.00,2614.00 1995.00,2615.00 1995.00,2615.00
             1995.00,2615.00 1901.00,2615.00 1901.00,2615.00
             1901.00,2615.00 1886.00,2616.00 1886.00,2616.00
             1886.00,2616.00 1795.00,2616.00 1795.00,2616.00
             1795.00,2616.00 1780.00,2617.00 1780.00,2617.00
             1780.00,2617.00 1683.00,2617.00 1683.00,2617.00
             1683.00,2617.00 1668.00,2618.00 1668.00,2618.00
             1668.00,2618.00 1574.00,2618.00 1574.00,2618.00
             1574.00,2618.00 1559.00,2619.00 1559.00,2619.00
             1559.00,2619.00 1461.00,2619.00 1461.00,2619.00
             1461.97,2612.79 1465.11,2605.99 1467.32,2600.00
             1467.32,2600.00 1478.95,2568.00 1478.95,2568.00
             1488.63,2541.51 1501.70,2503.06 1508.12,2476.00
             1508.12,2476.00 1511.32,2458.00 1511.32,2458.00
             1511.32,2458.00 1513.70,2448.00 1513.70,2448.00
             1513.70,2448.00 1514.99,2429.00 1514.99,2429.00
             1514.99,2429.00 1514.00,2411.00 1514.00,2411.00
             1514.00,2411.00 1512.00,2359.00 1512.00,2359.00
             1512.00,2359.00 1495.00,2360.84 1495.00,2360.84
             1495.00,2360.84 1463.00,2363.91 1463.00,2363.91
             1463.00,2363.91 1400.00,2365.00 1400.00,2365.00
             1357.64,2364.93 1301.11,2341.07 1261.00,2326.23
             1261.00,2326.23 1226.00,2315.28 1226.00,2315.28
             1226.00,2315.28 1167.00,2296.67 1167.00,2296.67
             1136.02,2286.34 1103.19,2272.84 1074.00,2258.25
             1065.14,2253.82 1056.29,2249.45 1048.00,2244.00
             1045.38,2242.27 1040.36,2239.19 1038.58,2236.82
             1035.80,2233.09 1035.09,2220.17 1034.25,2215.00
             1030.39,2191.24 1029.72,2178.94 1030.00,2155.00
             1030.14,2143.41 1034.13,2125.26 1037.42,2114.00
             1037.42,2114.00 1041.24,2102.00 1041.24,2102.00
             1041.24,2102.00 1043.88,2088.00 1043.88,2088.00
             1043.88,2088.00 1054.67,2051.00 1054.67,2051.00
             1063.79,2023.53 1073.21,1996.34 1085.31,1970.00
             1085.31,1970.00 1101.68,1940.00 1101.68,1940.00
             1101.68,1940.00 1108.78,1925.00 1108.78,1925.00
             1108.78,1925.00 1135.40,1878.00 1135.40,1878.00
             1135.40,1878.00 1172.34,1818.00 1172.34,1818.00
             1172.34,1818.00 1193.85,1793.00 1193.85,1793.00
             1193.85,1793.00 1231.28,1750.00 1231.28,1750.00
             1231.28,1750.00 1253.40,1724.00 1253.40,1724.00
             1253.40,1724.00 1264.86,1703.00 1264.86,1703.00
             1264.86,1703.00 1293.31,1650.00 1293.31,1650.00
             1293.31,1650.00 1315.43,1609.00 1315.43,1609.00
             1315.43,1609.00 1336.69,1571.00 1336.69,1571.00
             1346.25,1550.19 1355.89,1516.78 1368.16,1500.00
             1374.88,1490.81 1385.32,1482.34 1394.00,1474.87
             1394.00,1474.87 1452.00,1429.13 1452.00,1429.13
             1470.47,1415.28 1499.45,1393.51 1520.00,1384.58
             1532.88,1378.97 1534.60,1376.07 1549.00,1376.00
             1549.00,1376.00 1560.00,1375.09 1560.00,1375.09
             1560.00,1375.09 1626.00,1367.27 1626.00,1367.27
             1676.60,1359.98 1726.88,1350.63 1777.00,1340.60
             1777.00,1340.60 1817.00,1332.58 1817.00,1332.58
             1817.00,1332.58 1853.00,1325.00 1853.00,1325.00
             1853.00,1325.00 1855.00,1299.00 1855.00,1299.00
             1855.00,1299.00 1855.00,1286.00 1855.00,1286.00
             1855.00,1286.00 1854.04,1273.00 1854.04,1273.00
             1853.11,1251.58 1850.56,1230.18 1847.08,1209.00
             1847.08,1209.00 1839.67,1170.00 1839.67,1170.00
             1839.67,1170.00 1824.25,1140.00 1824.25,1140.00
             1824.25,1140.00 1810.25,1113.00 1810.25,1113.00
             1810.25,1113.00 1790.22,1073.00 1790.22,1073.00
             1785.95,1064.91 1775.29,1045.77 1772.75,1038.00
             1770.01,1029.65 1769.67,1020.66 1768.83,1012.00
             1768.83,1012.00 1767.00,985.00 1767.00,985.00
             1767.00,985.00 1765.84,969.00 1765.84,969.00
             1765.84,969.00 1765.84,946.00 1765.84,946.00
             1766.00,943.76 1766.09,941.16 1765.83,939.00
             1765.83,939.00 1755.72,915.00 1755.72,915.00
             1752.08,902.79 1748.06,881.61 1748.00,869.00
             1748.00,869.00 1747.04,851.00 1747.04,851.00
             1747.66,840.29 1757.01,843.31 1760.72,837.73
             1763.53,833.51 1765.82,815.42 1765.82,810.00
             1765.82,810.00 1763.55,790.00 1763.55,790.00
             1763.55,790.00 1761.15,780.00 1761.15,780.00
             1761.15,780.00 1761.15,771.00 1761.15,771.00
             1761.15,771.00 1758.16,742.00 1758.16,742.00
             1758.16,742.00 1748.73,671.00 1748.73,671.00
             1748.73,671.00 1744.00,638.00 1744.00,638.00
             1744.00,638.00 1744.00,624.00 1744.00,624.00
             1744.00,624.00 1745.97,599.00 1745.97,599.00
             1746.15,595.71 1747.60,579.41 1748.59,577.27
             1750.23,573.77 1752.81,575.49 1758.30,567.00
             1763.15,559.51 1768.25,542.92 1769.00,534.00 Z" />
</svg>
